<svg width="323" height="44" viewBox="0 0 323 44" fill="none" xmlns="http://www.w3.org/2000/svg">
<rect width="323" height="44" rx="8" fill="#050708"/>
<g clip-path="url(#clip0_1977_34609)">
<path d="M101.257 17.0865C101.985 17.0865 102.898 16.5792 103.441 15.9028C103.934 15.2898 104.292 14.4337 104.292 13.5776C104.292 13.4614 104.282 13.3451 104.262 13.25C103.452 13.2817 102.478 13.8102 101.893 14.5183C101.432 15.0573 101.011 15.9028 101.011 16.7695C101.011 16.8963 101.032 17.0231 101.042 17.0654C101.093 17.076 101.175 17.0865 101.257 17.0865ZM98.6938 29.875C99.6885 29.875 100.129 29.188 101.37 29.188C102.631 29.188 102.908 29.8539 104.016 29.8539C105.103 29.8539 105.831 28.8181 106.518 27.8035C107.287 26.6409 107.604 25.4994 107.625 25.4466C107.553 25.4255 105.472 24.5482 105.472 22.0857C105.472 19.9507 107.112 18.989 107.205 18.915C106.118 17.3085 104.467 17.2662 104.016 17.2662C102.795 17.2662 101.801 18.0272 101.175 18.0272C100.499 18.0272 99.6064 17.3085 98.5503 17.3085C96.5405 17.3085 94.5 19.0207 94.5 22.2548C94.5 24.2629 95.2588 26.3872 96.1919 27.7612C96.9917 28.9238 97.689 29.875 98.6938 29.875Z" fill="white"/>
</g>
<path d="M114.013 27L117.829 16.4312H119.154V18.2842H118.656L115.741 27H114.013ZM115.851 24.1436L116.312 22.8252H121.125L121.586 24.1436H115.851ZM121.688 27L118.781 18.2842V16.4312H119.608L123.417 27H121.688ZM125.072 29.6514V19.0459H126.662V20.2983H126.786C126.938 20.0054 127.133 19.7563 127.372 19.5513C127.616 19.3462 127.895 19.1875 128.207 19.0752C128.52 18.9629 128.861 18.9067 129.232 18.9067C129.901 18.9067 130.482 19.0776 130.976 19.4194C131.469 19.7563 131.85 20.2324 132.118 20.8477C132.392 21.458 132.528 22.1807 132.528 23.0156V23.0303C132.528 23.8701 132.394 24.5977 132.125 25.2129C131.857 25.8232 131.476 26.2969 130.983 26.6338C130.49 26.9658 129.906 27.1318 129.232 27.1318C128.866 27.1318 128.524 27.0757 128.207 26.9634C127.89 26.8462 127.609 26.6851 127.365 26.48C127.121 26.2749 126.928 26.0283 126.786 25.7402H126.662V29.6514H125.072ZM128.778 25.7695C129.223 25.7695 129.604 25.6597 129.921 25.4399C130.238 25.2202 130.48 24.9053 130.646 24.4951C130.817 24.085 130.902 23.5967 130.902 23.0303V23.0156C130.902 22.4443 130.817 21.9536 130.646 21.5435C130.48 21.1333 130.238 20.8184 129.921 20.5986C129.604 20.3789 129.223 20.269 128.778 20.269C128.339 20.269 127.958 20.3813 127.636 20.606C127.313 20.8257 127.067 21.1406 126.896 21.5508C126.725 21.9561 126.64 22.4443 126.64 23.0156V23.0303C126.64 23.5918 126.725 24.0776 126.896 24.4878C127.067 24.8979 127.313 25.2153 127.636 25.4399C127.958 25.6597 128.339 25.7695 128.778 25.7695ZM134.433 29.6514V19.0459H136.022V20.2983H136.146C136.298 20.0054 136.493 19.7563 136.732 19.5513C136.977 19.3462 137.255 19.1875 137.567 19.0752C137.88 18.9629 138.222 18.9067 138.593 18.9067C139.262 18.9067 139.843 19.0776 140.336 19.4194C140.829 19.7563 141.21 20.2324 141.479 20.8477C141.752 21.458 141.889 22.1807 141.889 23.0156V23.0303C141.889 23.8701 141.754 24.5977 141.486 25.2129C141.217 25.8232 140.836 26.2969 140.343 26.6338C139.85 26.9658 139.267 27.1318 138.593 27.1318C138.227 27.1318 137.885 27.0757 137.567 26.9634C137.25 26.8462 136.969 26.6851 136.725 26.48C136.481 26.2749 136.288 26.0283 136.146 25.7402H136.022V29.6514H134.433ZM138.139 25.7695C138.583 25.7695 138.964 25.6597 139.281 25.4399C139.599 25.2202 139.84 24.9053 140.006 24.4951C140.177 24.085 140.263 23.5967 140.263 23.0303V23.0156C140.263 22.4443 140.177 21.9536 140.006 21.5435C139.84 21.1333 139.599 20.8184 139.281 20.5986C138.964 20.3789 138.583 20.269 138.139 20.269C137.699 20.269 137.318 20.3813 136.996 20.606C136.674 20.8257 136.427 21.1406 136.256 21.5508C136.085 21.9561 136 22.4443 136 23.0156V23.0303C136 23.5918 136.085 24.0776 136.256 24.4878C136.427 24.8979 136.674 25.2153 136.996 25.4399C137.318 25.6597 137.699 25.7695 138.139 25.7695ZM143.866 27V15.9258H145.456V27H143.866ZM151.161 27.1538C150.385 27.1538 149.718 26.9878 149.162 26.6558C148.605 26.3188 148.175 25.8428 147.873 25.2275C147.575 24.6123 147.426 23.8848 147.426 23.0449V23.0376C147.426 22.2075 147.575 21.4824 147.873 20.8623C148.175 20.2422 148.6 19.7588 149.147 19.4121C149.699 19.0654 150.343 18.8921 151.081 18.8921C151.823 18.8921 152.46 19.0581 152.992 19.3901C153.529 19.7222 153.942 20.1885 154.23 20.7891C154.518 21.3848 154.662 22.083 154.662 22.8838V23.4404H148.231V22.3052H153.871L153.109 23.3599V22.7227C153.109 22.1562 153.021 21.6875 152.846 21.3164C152.675 20.9404 152.438 20.6597 152.135 20.4741C151.833 20.2886 151.483 20.1958 151.088 20.1958C150.692 20.1958 150.338 20.2935 150.026 20.4888C149.718 20.6792 149.474 20.9624 149.293 21.3384C149.118 21.7144 149.03 22.1758 149.03 22.7227V23.3599C149.03 23.8823 149.118 24.3291 149.293 24.7002C149.469 25.0713 149.718 25.3545 150.041 25.5498C150.368 25.7451 150.753 25.8428 151.198 25.8428C151.54 25.8428 151.833 25.7964 152.077 25.7036C152.326 25.606 152.528 25.4863 152.685 25.3447C152.846 25.2031 152.956 25.064 153.014 24.9272L153.043 24.8687H154.582L154.567 24.9346C154.499 25.1982 154.379 25.4619 154.208 25.7256C154.037 25.9844 153.81 26.2212 153.527 26.436C153.249 26.6509 152.912 26.8242 152.516 26.9561C152.125 27.0879 151.674 27.1538 151.161 27.1538ZM163.284 25.155H168.564V26.775H156.054V25.155H161.304V23.1H157.494V18.42H165.204V16.935H157.479V15.36H167.154V19.965H159.459V21.51H167.469V23.1H163.284V25.155ZM181.11 18.12V14.775H182.955V27.69H181.11V23.16H179.19V21.57H181.11V19.695H179.445C178.83 21.975 177.45 23.895 174.87 25.425L173.745 24.045C176.475 22.38 177.675 20.385 177.93 17.685H174.525V16.11H179.895C179.895 16.815 179.85 17.475 179.775 18.12H181.11ZM183.945 14.46H185.82V28.29H183.945V14.46ZM199.544 18.63L198.824 20.175C196.499 19.845 194.819 18.885 193.949 17.505C193.079 18.87 191.399 19.845 189.089 20.175L188.354 18.63C191.459 18.255 192.944 16.68 192.944 15.12V14.715H194.969V15.12C194.969 16.725 196.424 18.255 199.544 18.63ZM189.119 25.275V23.715H198.719V28.305H196.739V25.275H189.119ZM194.954 21.165H200.234V22.74H187.739V21.165H192.974V19.38H194.954V21.165ZM205.528 23.85C206.458 23.85 207.133 23.22 207.133 22.155C207.133 21.12 206.458 20.475 205.528 20.475C204.598 20.475 203.908 21.12 203.908 22.17C203.908 23.22 204.598 23.85 205.528 23.85ZM205.528 18.87C207.523 18.87 209.008 20.235 209.008 22.155C209.008 24.105 207.523 25.47 205.528 25.47C203.518 25.47 202.018 24.105 202.018 22.155C202.018 20.235 203.518 18.87 205.528 18.87ZM206.503 14.715V16.515H209.503V18.09H201.463V16.515H204.523V14.715H206.503ZM214.363 19.875V21.51H212.383V28.29H210.403V14.475H212.383V19.875H214.363ZM216.101 15.9H222.731C222.731 20.13 221.306 23.58 216.401 25.95L215.366 24.39C218.891 22.695 220.421 20.535 220.706 17.475H216.101V15.9ZM224.846 14.46H226.841V28.275H224.846V14.46Z" fill="white"/>
<defs>
<clipPath id="clip0_1977_34609">
<rect width="14" height="17.5" fill="white" transform="translate(94.5 13.25)"/>
</clipPath>
</defs>
</svg>
