<svg width="375" height="812" viewBox="0 0 375 812" fill="none" xmlns="http://www.w3.org/2000/svg">
<rect width="375" height="812" fill="#1B1C1E"/>
<path d="M190.684 377.535L193.276 376.626V349.257L190.684 348.575V348.348L200.641 344.893H200.686V350.121C202.171 348.514 203.581 347.241 204.914 346.302C206.278 345.362 207.733 344.893 209.279 344.893C210.703 344.893 212.037 345.317 213.279 346.166C214.522 346.984 215.522 348.227 216.28 349.893C217.068 351.53 217.462 353.531 217.462 355.895C217.462 358.683 216.916 361.092 215.825 363.123C214.764 365.154 213.31 366.7 211.461 367.76C209.642 368.821 207.596 369.352 205.323 369.352C204.475 369.352 203.702 369.276 203.005 369.124C202.308 369.003 201.535 368.821 200.686 368.579V376.626L204.141 377.535V377.762H190.684V377.535ZM200.686 366.124C201.323 366.942 201.989 367.609 202.686 368.124C203.384 368.609 204.172 368.851 205.051 368.851C205.899 368.851 206.702 368.518 207.46 367.851C208.218 367.154 208.824 366.093 209.279 364.669C209.733 363.214 209.961 361.426 209.961 359.304C209.961 357.031 209.673 355.152 209.097 353.667C208.551 352.182 207.824 351.091 206.915 350.394C206.005 349.696 205.035 349.348 204.005 349.348C202.823 349.348 201.717 349.803 200.686 350.712V366.124Z" fill="#F6FE8C"/>
<path d="M175.796 369.352C174.493 369.352 173.265 369.246 172.114 369.034C170.992 368.852 170.083 368.655 169.386 368.443L167.522 357.259H167.795C168.34 359.32 169.219 361.138 170.432 362.714C171.644 364.29 173.084 365.518 174.751 366.397C176.418 367.245 178.175 367.67 180.024 367.67C181.661 367.67 182.888 367.351 183.707 366.715C184.555 366.048 184.98 365.154 184.98 364.033C184.98 362.79 184.358 361.608 183.116 360.487C181.903 359.365 179.63 358.047 176.296 356.531C173.629 355.319 171.538 354.167 170.022 353.076C168.507 351.955 167.431 350.849 166.795 349.757C166.158 348.636 165.84 347.408 165.84 346.075C165.84 344.196 166.416 342.468 167.567 340.892C168.749 339.286 170.386 338.013 172.477 337.073C174.569 336.103 176.948 335.618 179.615 335.618C181.797 335.618 184.07 335.937 186.434 336.573L187.435 333.664H187.662V345.12H187.435C186.889 342.514 185.753 340.392 184.025 338.755C182.328 337.119 180.282 336.3 177.887 336.3C176.13 336.3 174.705 336.71 173.614 337.528C172.553 338.346 172.023 339.453 172.023 340.847C172.023 342.271 172.629 343.59 173.841 344.802C175.054 345.984 177.099 347.211 179.979 348.484C183.282 349.939 185.631 351.44 187.025 352.985C188.42 354.501 189.117 356.349 189.117 358.532C189.117 360.532 188.586 362.351 187.526 363.987C186.465 365.624 184.919 366.927 182.888 367.897C180.888 368.867 178.524 369.352 175.796 369.352Z" fill="#F6FE8C"/>
<path d="M153.048 369.352C150.805 369.352 148.79 368.867 147.001 367.897C145.243 366.927 143.864 365.563 142.864 363.805C141.894 362.047 141.409 360.017 141.409 357.713C141.409 355.167 141.97 352.924 143.092 350.985C144.213 349.045 145.728 347.545 147.638 346.484C149.547 345.423 151.639 344.893 153.912 344.893C156.67 344.893 158.867 345.514 160.504 346.757C162.171 347.969 163.095 349.484 163.277 351.303H148.956C148.896 352.03 148.865 352.606 148.865 353.03C148.865 356.819 149.638 359.653 151.184 361.532C152.73 363.411 154.912 364.351 157.731 364.351C159.549 364.351 160.928 363.972 161.868 363.214C162.807 362.426 163.55 361.229 164.095 359.623L164.368 359.713C162.519 366.139 158.746 369.352 153.048 369.352ZM156.139 350.575C155.988 349.09 155.594 347.863 154.957 346.893C154.321 345.923 153.548 345.438 152.639 345.438C151.669 345.438 150.866 345.908 150.229 346.847C149.593 347.787 149.168 349.136 148.956 350.894L156.139 350.575Z" fill="#F6FE8C"/>
<path d="M98.3641 337.437L96 336.528V336.301H110.503V336.528L106.729 337.437L114.822 359.259L122.414 335.209H122.55L134.371 359.578L136.416 353.849C137.508 350.909 138.311 348.485 138.826 346.575C139.341 344.635 139.599 343.044 139.599 341.802C139.599 340.195 139.19 339.043 138.371 338.346C137.553 337.619 136.28 337.089 134.552 336.755L133.507 336.528V336.301H145.782V336.528L143.463 337.437L130.961 369.761H130.824L120.141 347.575L110.912 369.761H110.775L98.3641 337.437Z" fill="#F6FE8C"/>
<path d="M270.685 369.352C268.927 369.352 267.533 368.852 266.502 367.851C265.472 366.821 264.956 365.412 264.956 363.623V348.348H262.501V348.075C264.684 347.439 266.699 346.257 268.548 344.529C270.397 342.801 271.579 341.044 272.094 339.255H272.367V345.575H278.232V348.348H272.367V363.169C272.367 364.048 272.64 364.73 273.185 365.215C273.731 365.669 274.504 365.897 275.504 365.897C276.11 365.897 276.671 365.806 277.186 365.624C277.701 365.442 278.262 365.139 278.868 364.715L279.05 364.942C276.807 366.7 275.14 367.882 274.049 368.488C272.988 369.064 271.867 369.352 270.685 369.352Z" fill="#F6FE8C"/>
<path d="M219.389 367.028L233.121 358.441L220.834 349.138L236.012 354.147L232.398 341.266L241.071 352L259.862 326.238L249.021 352.716L259.862 353.431L247.576 357.725L266.367 372.753L245.408 364.881L246.13 373.469L241.071 365.597L232.398 377.762L233.844 364.166L219.389 367.028Z" fill="#F6FE8C"/>
<path d="M128.253 406.238H121.925V411.564H119.991V406.238H113.733V404.621H128.253V406.238ZM120.958 396.236C122.077 396.242 123.07 396.392 123.938 396.685C124.805 396.978 125.479 397.394 125.959 397.933C126.445 398.466 126.688 399.09 126.688 399.805C126.688 400.514 126.445 401.135 125.959 401.668C125.479 402.195 124.805 402.603 123.938 402.89C123.07 403.177 122.077 403.32 120.958 403.32C119.833 403.32 118.837 403.177 117.97 402.89C117.108 402.603 116.44 402.195 115.966 401.668C115.491 401.135 115.257 400.514 115.263 399.805C115.257 399.09 115.491 398.466 115.966 397.933C116.44 397.394 117.108 396.978 117.97 396.685C118.837 396.392 119.833 396.242 120.958 396.236ZM120.958 397.818C120.208 397.818 119.555 397.897 118.998 398.056C118.441 398.214 118.011 398.442 117.706 398.741C117.407 399.04 117.261 399.395 117.267 399.805C117.261 400.209 117.407 400.561 117.706 400.859C118.011 401.152 118.441 401.378 118.998 401.536C119.555 401.694 120.208 401.773 120.958 401.773C121.708 401.773 122.361 401.694 122.918 401.536C123.475 401.378 123.905 401.152 124.21 400.859C124.515 400.561 124.667 400.209 124.667 399.805C124.667 399.395 124.515 399.04 124.21 398.741C123.905 398.442 123.475 398.214 122.918 398.056C122.361 397.897 121.708 397.818 120.958 397.818ZM142.544 411.582H140.61V395.674H142.544V411.582ZM137.657 403.021H132.19V406.221C133.532 406.209 134.763 406.162 135.882 406.08C137.007 405.998 138.155 405.857 139.327 405.658L139.503 407.258C138.243 407.48 137.004 407.63 135.785 407.706C134.566 407.782 133.163 407.82 131.575 407.82H130.187V401.475H135.671V398.645H130.169V397.062H137.657V403.021ZM157.31 401.879H159.665V403.514H157.31V411.529H155.358V395.674H157.31V401.879ZM153.108 397.326C153.108 402.541 150.7 406.332 145.884 408.699L144.776 407.188C146.71 406.227 148.201 405.063 149.25 403.698C150.305 402.333 150.932 400.748 151.131 398.943H145.638V397.326H153.108ZM177.999 407.346H176.048V403.408H172.26C171.879 403.842 171.413 404.179 170.862 404.419C170.317 404.659 169.731 404.779 169.104 404.779C168.319 404.779 167.604 404.604 166.96 404.252C166.321 403.9 165.817 403.417 165.448 402.802C165.085 402.181 164.903 401.486 164.903 400.719C164.903 399.939 165.085 399.239 165.448 398.618C165.817 397.997 166.321 397.514 166.96 397.168C167.599 396.816 168.313 396.641 169.104 396.641C169.731 396.641 170.314 396.761 170.854 397.001C171.398 397.235 171.864 397.566 172.251 397.994H176.048V395.691H177.999V407.346ZM178.403 411.248H167.575V406.15H169.526V409.666H178.403V411.248ZM169.104 398.381C168.647 398.381 168.243 398.478 167.892 398.671C167.54 398.864 167.265 399.137 167.065 399.488C166.866 399.84 166.767 400.25 166.767 400.719C166.767 401.182 166.866 401.589 167.065 401.94C167.265 402.292 167.54 402.564 167.892 402.758C168.243 402.945 168.647 403.039 169.104 403.039C169.538 403.039 169.928 402.942 170.273 402.749C170.619 402.556 170.892 402.283 171.091 401.932C171.296 401.58 171.401 401.176 171.407 400.719C171.401 400.256 171.296 399.849 171.091 399.497C170.892 399.14 170.619 398.864 170.273 398.671C169.928 398.478 169.538 398.381 169.104 398.381ZM173.112 399.576C173.218 399.969 173.271 400.35 173.271 400.719C173.271 401.094 173.221 401.463 173.121 401.826H176.048V399.576H173.112ZM193.556 403.725H191.604V402.336H187.772V400.842H191.604V399.277H187.975C186.996 401.674 184.72 403.273 181.146 404.076L180.46 402.477C182.282 402.102 183.68 401.524 184.652 400.745C185.631 399.966 186.19 399.031 186.331 397.941H181.339V396.359H188.511C188.511 396.822 188.473 397.297 188.396 397.783H191.604V395.674H193.556V403.725ZM193.556 408.523H185.065V409.842H193.978V411.406H183.114V407.064H191.604V405.887H183.097V404.34H193.556V408.523ZM205.263 403.848H202.046V406.625C203.522 406.561 204.888 406.461 206.142 406.326L206.3 407.768C204.741 408.002 203.15 408.154 201.527 408.225C199.904 408.295 198.103 408.33 196.122 408.33L195.876 406.713H197.229C198.483 406.713 199.438 406.704 200.095 406.687V403.848H196.983V397.133H205.192V398.68H198.917V402.266H205.263V403.848ZM209.042 411.582H207.091V395.674H209.042V411.582ZM224.229 401.721H213.226V396.254H215.159V400.174H224.229V401.721ZM225.864 405.113H211.345V403.566H225.864V405.113ZM224.335 411.195H213.085V406.52H215.036V409.613H224.335V411.195ZM238.345 405.605C239.493 405.611 240.489 405.734 241.333 405.975C242.177 406.209 242.827 406.549 243.284 406.994C243.747 407.439 243.981 407.973 243.987 408.594C243.981 409.203 243.747 409.728 243.284 410.167C242.827 410.612 242.174 410.952 241.324 411.187C240.48 411.427 239.487 411.547 238.345 411.547C237.208 411.547 236.215 411.427 235.365 411.187C234.521 410.952 233.868 410.612 233.405 410.167C232.948 409.728 232.72 409.203 232.72 408.594C232.72 407.973 232.948 407.439 233.405 406.994C233.868 406.549 234.521 406.209 235.365 405.975C236.209 405.734 237.202 405.611 238.345 405.605ZM238.345 407.082C237.196 407.082 236.297 407.214 235.646 407.478C235.002 407.741 234.683 408.113 234.688 408.594C234.683 409.057 235.002 409.414 235.646 409.666C236.291 409.912 237.19 410.035 238.345 410.035C239.505 410.035 240.41 409.912 241.061 409.666C241.717 409.414 242.048 409.057 242.054 408.594C242.048 408.113 241.717 407.741 241.061 407.478C240.41 407.214 239.505 407.082 238.345 407.082ZM243.882 397.748C243.882 398.592 243.855 399.324 243.803 399.945C243.756 400.566 243.636 401.24 243.442 401.967L241.509 401.791C241.685 401.094 241.799 400.464 241.852 399.901C241.904 399.333 241.931 398.691 241.931 397.977H232.878V396.43H243.882V397.748ZM245.64 404.463H231.226V402.881H236.815V399.998H238.749V402.881H245.64V404.463ZM259.28 400.244H261.495V401.879H259.28V407.135H257.294V395.674H259.28V400.244ZM254.956 396.887C254.956 398.281 254.663 399.544 254.077 400.675C253.491 401.8 252.642 402.77 251.528 403.584C250.421 404.393 249.079 405.025 247.503 405.482L246.694 403.936C247.896 403.59 248.933 403.147 249.806 402.608C250.685 402.063 251.379 401.442 251.889 400.745C252.398 400.048 252.709 399.295 252.82 398.486H247.362V396.887H254.956ZM259.878 411.248H249.067V405.957H251.054V409.666H259.878V411.248Z" fill="white"/>
</svg>
