<svg width="40" height="40" viewBox="0 0 40 40" fill="none" xmlns="http://www.w3.org/2000/svg">
<g opacity="0.8">
<path d="M11.6963 25.3013L10.9372 24.6707C10.5303 25.1606 10.5958 25.7576 10.7379 26.1123C10.8783 26.4628 11.2748 27 11.9908 27H28.0092C28.7252 27 29.1217 26.4628 29.2621 26.1124C29.4042 25.7577 29.4697 25.1606 29.0628 24.6707C28.3386 23.799 27 21.5821 27 17C27 15.1435 26.2625 13.363 24.9497 12.0503C23.637 10.7375 21.8565 10 20 10C18.1435 10 16.363 10.7375 15.0503 12.0503C13.7375 13.363 13 15.1435 13 17C13 21.5821 11.6614 23.799 10.9372 24.6707L11.6963 25.3013ZM11.6963 25.3013L11.7025 25.3065L11.6963 25.3013Z" fill="#76777D" stroke="#76777D" stroke-width="2" stroke-linecap="round" stroke-linejoin="round"/>
<path d="M21.7273 30.5C21.5515 30.8031 21.2992 31.0547 20.9956 31.2295C20.6919 31.4044 20.3477 31.4965 19.9973 31.4965C19.647 31.4965 19.3027 31.4044 18.9991 31.2295C18.6955 31.0547 18.4431 30.8031 18.2673 30.5" stroke="#76777D" stroke-width="2" stroke-linecap="round" stroke-linejoin="round"/>
</g>
</svg>
