<svg width="22" height="24" viewBox="0 0 22 24" fill="none" xmlns="http://www.w3.org/2000/svg">
<g opacity="0.8">
<path d="M2.69633 16.3013L1.93725 15.6707C1.53033 16.1606 1.59584 16.7576 1.73793 17.1123C1.87831 17.4628 2.27478 18 2.99083 18H19.0092C19.7252 18 20.1217 17.4628 20.2621 17.1124C20.4042 16.7577 20.4697 16.1606 20.0628 15.6707C19.3386 14.799 18 12.5821 18 8C18 6.14349 17.2625 4.36301 15.9497 3.05025C14.637 1.7375 12.8565 1 11 1C9.14348 1 7.36301 1.7375 6.05025 3.05025C4.7375 4.36301 4 6.14349 4 8C4 12.5821 2.6614 14.799 1.93725 15.6707L2.69633 16.3013ZM2.69633 16.3013L2.70253 16.3065L2.69633 16.3013Z" stroke="#76777D" stroke-width="2" stroke-linecap="round" stroke-linejoin="round"/>
<path d="M12.7273 21.5C12.5515 21.8031 12.2992 22.0547 11.9956 22.2295C11.6919 22.4044 11.3477 22.4965 10.9973 22.4965C10.647 22.4965 10.3027 22.4044 9.99911 22.2295C9.69549 22.0547 9.44314 21.8031 9.26733 21.5" stroke="#76777D" stroke-width="2" stroke-linecap="round" stroke-linejoin="round"/>
</g>
</svg>
