<svg width="40" height="40" viewBox="0 0 40 40" fill="none" xmlns="http://www.w3.org/2000/svg">
<path d="M14 30C13.45 30 12.9793 29.8043 12.588 29.413C12.1967 29.0217 12.0007 28.5507 12 28V18C12 17.45 12.196 16.9793 12.588 16.588C12.98 16.1967 13.4507 16.0007 14 16H15V14C15 12.6167 15.4877 11.4377 16.463 10.463C17.4383 9.48833 18.6173 9.00067 20 9C21.3827 8.99933 22.562 9.487 23.538 10.463C24.514 11.439 25.0013 12.618 25 14V16H26C26.55 16 27.021 16.196 27.413 16.588C27.805 16.98 28.0007 17.4507 28 18V28C28 28.55 27.8043 29.021 27.413 29.413C27.0217 29.805 26.5507 30.0007 26 30H14ZM20 25C20.55 25 21.021 24.8043 21.413 24.413C21.805 24.0217 22.0007 23.5507 22 23C21.9993 22.4493 21.8037 21.9787 21.413 21.588C21.0223 21.1973 20.5513 21.0013 20 21C19.4487 20.9987 18.978 21.1947 18.588 21.588C18.198 21.9813 18.002 22.452 18 23C17.998 23.548 18.194 24.019 18.588 24.413C18.982 24.807 19.4527 25.0027 20 25ZM17 16H23V14C23 13.1667 22.7083 12.4583 22.125 11.875C21.5417 11.2917 20.8333 11 20 11C19.1667 11 18.4583 11.2917 17.875 11.875C17.2917 12.4583 17 13.1667 17 14V16Z" fill="#AEAFB4"/>
</svg>
