<svg width="40" height="40" viewBox="0 0 40 40" fill="none" xmlns="http://www.w3.org/2000/svg">
<path d="M28.7043 27.38L25.3054 24.1794C26.402 22.8599 26.9971 21.2305 26.9948 19.5531C26.9948 18.0593 26.5258 16.5989 25.647 15.3568C24.7683 14.1147 23.5192 13.1466 22.0579 12.575C20.5966 12.0033 18.9886 11.8537 17.4372 12.1451C15.8859 12.4366 14.4609 13.1559 13.3424 14.2123C12.2239 15.2686 11.4623 16.6144 11.1537 18.0796C10.8451 19.5447 11.0035 21.0634 11.6088 22.4436C12.2141 23.8237 13.2391 25.0034 14.5543 25.8333C15.8695 26.6633 17.4157 27.1062 18.9974 27.1062C20.7735 27.1083 22.4988 26.5464 23.8958 25.5106L27.2848 28.7207C27.3777 28.8092 27.4883 28.8795 27.6101 28.9274C27.7319 28.9753 27.8626 29 27.9945 29C28.1265 29 28.2572 28.9753 28.379 28.9274C28.5008 28.8795 28.6114 28.8092 28.7043 28.7207C28.798 28.633 28.8724 28.5285 28.9231 28.4135C28.9739 28.2984 29 28.175 29 28.0504C29 27.9257 28.9739 27.8023 28.9231 27.6873C28.8724 27.5722 28.798 27.4678 28.7043 27.38ZM12.9994 19.5531C12.9994 18.4327 13.3511 17.3375 14.0102 16.4059C14.6693 15.4743 15.6061 14.7483 16.7021 14.3195C17.7981 13.8907 19.0041 13.7786 20.1676 13.9971C21.3311 14.2157 22.3999 14.7552 23.2387 15.5475C24.0775 16.3397 24.6488 17.3491 24.8802 18.448C25.1117 19.5468 24.9929 20.6859 24.5389 21.721C24.0849 22.7561 23.3161 23.6408 22.3298 24.2633C21.3434 24.8857 20.1837 25.218 18.9974 25.218C17.4066 25.218 15.881 24.6211 14.7562 23.5588C13.6313 22.4964 12.9994 21.0555 12.9994 19.5531Z" fill="#878A93"/>
</svg>
