<svg width="40" height="40" viewBox="0 0 40 40" fill="none" xmlns="http://www.w3.org/2000/svg">
<path fill-rule="evenodd" clip-rule="evenodd" d="M20.0005 23.667C19.519 23.667 19.0422 23.5722 18.5974 23.3879C18.1525 23.2036 17.7483 22.9336 17.4079 22.5931C17.0674 22.2526 16.7973 21.8484 16.6131 21.4036C16.4288 20.9588 16.334 20.482 16.334 20.0005C16.334 19.519 16.4288 19.0422 16.6131 18.5974C16.7973 18.1526 17.0674 17.7484 17.4079 17.4079C17.7483 17.0674 18.1525 16.7974 18.5974 16.6131C19.0422 16.4288 19.519 16.334 20.0005 16.334C20.9729 16.334 21.9055 16.7203 22.5931 17.4079C23.2807 18.0955 23.667 19.0281 23.667 20.0005C23.667 20.9729 23.2807 21.9055 22.5931 22.5931C21.9055 23.2807 20.9729 23.667 20.0005 23.667V23.667ZM29.0335 21.952C28.5305 21.4311 28.2497 20.7351 28.2505 20.011V19.99C28.2497 19.2659 28.5305 18.5699 29.0335 18.049L29.9725 17.079C30.3585 16.679 30.4325 16.071 30.1555 15.59L28.8975 13.412C28.7625 13.1775 28.5547 12.9935 28.3057 12.8878C28.0567 12.782 27.7799 12.7603 27.5175 12.826L26.2025 13.154C25.4963 13.3308 24.749 13.2242 24.1205 12.857L24.1025 12.847C23.4834 12.4872 23.0279 11.9016 22.8315 11.213L22.4555 9.904C22.3813 9.64368 22.2244 9.41462 22.0084 9.2515C21.7924 9.08837 21.5291 9.00008 21.2585 9H18.7425C18.1875 9 17.6975 9.369 17.5455 9.904L17.1405 11.313C16.9627 11.9427 16.5447 12.4774 15.9765 12.802C15.9178 12.8348 15.8598 12.8688 15.8025 12.904C15.2324 13.2435 14.5511 13.3434 13.9075 13.182L12.4825 12.826C12.2201 12.7604 11.9436 12.782 11.6946 12.8876C11.4456 12.9931 11.2378 13.1768 11.1025 13.411L9.84548 15.59C9.71028 15.8244 9.65501 16.0965 9.68802 16.3651C9.72104 16.6337 9.84054 16.8843 10.0285 17.079L10.9675 18.049C11.4705 18.57 11.7515 19.266 11.7515 19.989V20.011C11.7515 20.735 11.4705 21.431 10.9675 21.952L10.4645 22.472C10.1508 22.7963 9.95128 23.214 9.89607 23.6618C9.84086 24.1096 9.93298 24.5632 10.1585 24.954L11.1035 26.589C11.3815 27.071 11.9435 27.31 12.4835 27.175L13.9085 26.819C14.5521 26.6576 15.2334 26.7575 15.8035 27.097C15.8605 27.132 15.9185 27.166 15.9775 27.199C16.5465 27.521 16.9615 28.058 17.1415 28.688L17.5455 30.097C17.6975 30.632 18.1875 31 18.7425 31H21.2585C21.8135 31 22.3035 30.632 22.4555 30.097L22.8595 28.688C23.0395 28.058 23.4545 27.521 24.0235 27.199C24.0825 27.166 24.1405 27.132 24.1975 27.097C24.7676 26.7575 25.4489 26.6576 26.0925 26.819L27.5175 27.175C27.7798 27.2406 28.0564 27.219 28.3054 27.1134C28.5544 27.0079 28.7622 26.8242 28.8975 26.59L30.1555 24.411C30.2907 24.1766 30.3459 23.9045 30.3129 23.6359C30.2799 23.3673 30.1604 23.1167 29.9725 22.922L29.0325 21.952H29.0335Z" fill="#76777D"/>
</svg>
