<svg width="112" height="43" viewBox="0 0 112 43" fill="none" xmlns="http://www.w3.org/2000/svg">
<path d="M57.2212 34.8487L58.5922 34.3675V19.8843L57.2212 19.5234V19.4032L62.4886 17.5747H62.5127V20.3414C63.2984 19.4914 64.044 18.8177 64.7495 18.3205C65.4711 17.8233 66.2408 17.5747 67.0586 17.5747C67.8122 17.5747 68.5177 17.7993 69.1752 18.2483C69.8326 18.6814 70.3617 19.339 70.7626 20.2211C71.1795 21.0872 71.388 22.1458 71.388 23.3969C71.388 24.8725 71.0993 26.1476 70.5221 27.2222C69.9609 28.2968 69.1912 29.1148 68.2131 29.6761C67.251 30.2375 66.1686 30.5182 64.966 30.5182C64.517 30.5182 64.1081 30.4781 63.7393 30.3979C63.3705 30.3337 62.9617 30.2375 62.5127 30.1092V34.3675L64.3407 34.8487V34.969H57.2212V34.8487ZM62.5127 28.81C62.8494 29.2431 63.2022 29.5959 63.571 29.8686C63.9398 30.1252 64.3567 30.2535 64.8217 30.2535C65.2707 30.2535 65.6956 30.0771 66.0965 29.7243C66.4973 29.3554 66.818 28.794 67.0586 28.0402C67.2991 27.2703 67.4193 26.324 67.4193 25.2013C67.4193 23.9983 67.267 23.0039 66.9623 22.218C66.6737 21.4321 66.2889 20.8547 65.8078 20.4858C65.3268 20.1169 64.8137 19.9324 64.2685 19.9324C63.6431 19.9324 63.0579 20.173 62.5127 20.6542V28.81Z" fill="#F6FE8C"/>
<path d="M49.3456 30.5178C48.6561 30.5178 48.0067 30.4616 47.3973 30.3494C46.804 30.2531 46.323 30.1489 45.9542 30.0366L44.9681 24.1182H45.1124C45.401 25.2089 45.866 26.1712 46.5074 27.0052C47.1488 27.8393 47.9104 28.4888 48.7924 28.954C49.6743 29.4031 50.6043 29.6276 51.5824 29.6276C52.4483 29.6276 53.0977 29.4592 53.5307 29.1224C53.9796 28.7695 54.2041 28.2964 54.2041 27.7029C54.2041 27.0453 53.8754 26.4198 53.218 25.8264C52.5766 25.2329 51.374 24.5352 49.6101 23.7333C48.1991 23.0917 47.0927 22.4822 46.2909 21.9048C45.4892 21.3114 44.92 20.726 44.5832 20.1486C44.2465 19.5551 44.0781 18.9055 44.0781 18.1998C44.0781 17.2054 44.3828 16.2912 44.9921 15.4571C45.6175 14.6071 46.4833 13.9334 47.5898 13.4362C48.6962 12.923 49.9549 12.6664 51.366 12.6664C52.5205 12.6664 53.7231 12.8348 54.9738 13.1716L55.5029 11.6318H55.6232V17.6946H55.5029C55.2143 16.3152 54.613 15.1925 53.699 14.3264C52.8011 13.4603 51.7187 13.0272 50.452 13.0272C49.5219 13.0272 48.7683 13.2438 48.1911 13.6768C47.6298 14.1099 47.3492 14.6953 47.3492 15.4331C47.3492 16.1869 47.6699 16.8846 48.3113 17.5262C48.9527 18.1517 50.0351 18.8013 51.5584 19.4749C53.3062 20.2448 54.5489 21.0387 55.2865 21.8567C56.0241 22.6587 56.3929 23.637 56.3929 24.7918C56.3929 25.8504 56.1123 26.8128 55.551 27.6789C54.9898 28.545 54.172 29.2346 53.0977 29.7479C52.0394 30.2611 50.7887 30.5178 49.3456 30.5178Z" fill="#F6FE8C"/>
<path d="M37.3102 30.5182C36.1236 30.5182 35.0573 30.2616 34.1113 29.7483C33.1812 29.2351 32.4517 28.5133 31.9225 27.583C31.4094 26.6528 31.1528 25.5782 31.1528 24.3592C31.1528 23.0119 31.4495 21.825 32.0428 20.7985C32.6361 19.7721 33.4378 18.9781 34.448 18.4168C35.4582 17.8554 36.5646 17.5747 37.7672 17.5747C39.2264 17.5747 40.3889 17.9035 41.2548 18.5611C42.1367 19.2027 42.6258 20.0046 42.722 20.967H35.1455C35.1134 21.3519 35.0974 21.6566 35.0974 21.8812C35.0974 23.8861 35.5063 25.3857 36.3241 26.3801C37.1418 27.3745 38.2963 27.8717 39.7876 27.8717C40.7497 27.8717 41.4793 27.6713 41.9763 27.2703C42.4734 26.8533 42.8663 26.2197 43.1549 25.3697L43.2992 25.4178C42.3211 28.8181 40.3248 30.5182 37.3102 30.5182ZM38.9458 20.582C38.8656 19.7961 38.6571 19.1465 38.3204 18.6333C37.9837 18.12 37.5748 17.8634 37.0937 17.8634C36.5806 17.8634 36.1557 18.112 35.819 18.6092C35.4822 19.1064 35.2577 19.8202 35.1455 20.7504L38.9458 20.582Z" fill="#F6FE8C"/>
<path d="M8.37913 13.6291L7.12842 13.1479V13.0276H14.8011V13.1479L12.8047 13.6291L17.086 25.1771L21.1028 12.4502H21.1749L27.4285 25.3456L28.5109 22.3142C29.0881 20.7584 29.513 19.4753 29.7856 18.4648C30.0582 17.4383 30.1945 16.5963 30.1945 15.9387C30.1945 15.0886 29.978 14.4791 29.5451 14.1102C29.1122 13.7253 28.4387 13.4446 27.5247 13.2682L26.9715 13.1479V13.0276H33.4656V13.1479L32.239 13.6291L25.6246 30.7347H25.5524L19.9002 18.9941L15.0176 30.7347H14.9454L8.37913 13.6291Z" fill="#F6FE8C"/>
<path d="M99.5452 30.518C98.6152 30.518 97.8776 30.2534 97.3324 29.7241C96.7872 29.1788 96.5146 28.433 96.5146 27.4867V19.403H95.2158V19.2587C96.3703 18.9218 97.4366 18.2963 98.4148 17.3821C99.3929 16.4679 100.018 15.5376 100.291 14.5913H100.435V17.9354H103.538V19.403H100.435V27.2461C100.435 27.7112 100.579 28.0721 100.868 28.3287C101.157 28.5693 101.566 28.6896 102.095 28.6896C102.415 28.6896 102.712 28.6415 102.985 28.5452C103.257 28.449 103.554 28.2886 103.875 28.0641L103.971 28.1844C102.784 29.1146 101.902 29.7402 101.325 30.0609C100.764 30.3657 100.171 30.518 99.5452 30.518Z" fill="#F6FE8C"/>
<path d="M72.4062 29.2885L79.6713 24.7441L73.171 19.821L81.2007 22.4719L79.2889 15.6553L83.8773 21.3358L93.8189 7.70264L88.0834 21.7145L93.8189 22.0932L87.3186 24.3654L97.2602 32.3181L86.1715 28.1524L86.5539 32.6968L83.8773 28.5311L79.2889 34.969L80.0536 27.7737L72.4062 29.2885Z" fill="#F6FE8C"/>
</svg>
