<svg width="323" height="44" viewBox="0 0 323 44" fill="none" xmlns="http://www.w3.org/2000/svg">
<rect width="323" height="44" rx="6" fill="#FEE500"/>
<g clip-path="url(#clip0_1977_34610)">
<path opacity="0.902" fill-rule="evenodd" clip-rule="evenodd" d="M91 13.9438C86.29 13.9438 82 17.7298 82 20.9328C82 23.3328 83.558 25.4498 85.931 26.7078L84.933 30.3738C84.844 30.6988 85.213 30.9568 85.496 30.7698L89.873 27.8648C90.242 27.9008 90.618 27.9218 91 27.9218C95.97 27.9218 100 24.7928 100 20.9328C100 17.7298 95.97 13.9438 91 13.9438Z" fill="black"/>
</g>
<path d="M109.344 16.042H115.266C115.266 20.018 114.328 23.336 109.526 25.786L108.546 24.358C110.66 23.308 111.906 22.104 112.634 20.69L108.896 21.054L108.658 19.486L113.166 19.22C113.292 18.688 113.39 18.128 113.432 17.512H109.344V16.042ZM120.502 19.724V21.25H118.696V27.676H116.848V14.796H118.696V19.724H120.502ZM122.223 16.042H128.145C128.145 20.018 127.207 23.336 122.405 25.786L121.425 24.358C123.539 23.308 124.785 22.104 125.513 20.69L121.775 21.054L121.537 19.486L126.045 19.22C126.171 18.688 126.269 18.128 126.311 17.512H122.223V16.042ZM133.381 19.724V21.25H131.575V27.676H129.727V14.796H131.575V19.724H133.381ZM137.202 19.024C137.202 20.34 138.42 21.11 140.184 21.11C141.962 21.11 143.18 20.34 143.18 19.024C143.18 17.708 141.962 16.938 140.184 16.938C138.42 16.938 137.202 17.708 137.202 19.024ZM141.108 24.708H146.036V26.206H134.36V24.708H139.26V22.524C136.992 22.244 135.382 20.942 135.382 19.024C135.382 16.868 137.44 15.468 140.184 15.468C142.942 15.468 145 16.868 145 19.024C145 20.942 143.39 22.258 141.108 22.524V24.708ZM148.527 25.324V23.868H157.459V27.718H155.611V25.324H148.527ZM153.973 21.642H158.887V23.112H147.225V21.642H152.125V20.718H148.681V15.118H157.557V16.518H150.515V17.218H157.249V18.562H150.515V19.318H157.655V20.718H153.973V21.642ZM165.942 15.454C168.658 15.454 170.758 16.938 170.758 19.192C170.758 21.432 168.658 22.916 165.942 22.916C163.24 22.916 161.14 21.432 161.14 19.192C161.14 16.938 163.24 15.454 165.942 15.454ZM165.942 16.966C164.192 16.966 162.946 17.792 162.946 19.192C162.946 20.564 164.192 21.404 165.942 21.404C167.706 21.404 168.952 20.564 168.952 19.192C168.952 17.792 167.706 16.966 165.942 16.966ZM160.118 24.652H171.794V26.164H160.118V24.652ZM179.745 24.778H184.673V26.29H172.997V24.778H177.897V22.86H174.341V18.492H181.537V17.106H174.327V15.636H183.357V19.934H176.175V21.376H183.651V22.86H179.745V24.778ZM196.382 18.212V15.09H198.104V27.144H196.382V22.916H194.59V21.432H196.382V19.682H194.828C194.254 21.81 192.966 23.602 190.558 25.03L189.508 23.742C192.056 22.188 193.176 20.326 193.414 17.806H190.236V16.336H195.248C195.248 16.994 195.206 17.61 195.136 18.212H196.382ZM199.028 14.796H200.778V27.704H199.028V14.796ZM213.587 18.688L212.915 20.13C210.745 19.822 209.177 18.926 208.365 17.638C207.553 18.912 205.985 19.822 203.829 20.13L203.143 18.688C206.041 18.338 207.427 16.868 207.427 15.412V15.034H209.317V15.412C209.317 16.91 210.675 18.338 213.587 18.688ZM203.857 24.89V23.434H212.817V27.718H210.969V24.89H203.857ZM209.303 21.054H214.231V22.524H202.569V21.054H207.455V19.388H209.303V21.054ZM219.172 23.56C220.04 23.56 220.67 22.972 220.67 21.978C220.67 21.012 220.04 20.41 219.172 20.41C218.304 20.41 217.66 21.012 217.66 21.992C217.66 22.972 218.304 23.56 219.172 23.56ZM219.172 18.912C221.034 18.912 222.42 20.186 222.42 21.978C222.42 23.798 221.034 25.072 219.172 25.072C217.296 25.072 215.896 23.798 215.896 21.978C215.896 20.186 217.296 18.912 219.172 18.912ZM220.082 15.034V16.714H222.882V18.184H215.378V16.714H218.234V15.034H220.082ZM227.418 19.85V21.376H225.57V27.704H223.722V14.81H225.57V19.85H227.418ZM229.041 16.14H235.229C235.229 20.088 233.899 23.308 229.321 25.52L228.355 24.064C231.645 22.482 233.073 20.466 233.339 17.61H229.041V16.14ZM237.203 14.796H239.065V27.69H237.203V14.796Z" fill="black"/>
<defs>
<clipPath id="clip0_1977_34610">
<rect width="18" height="18" fill="white" transform="translate(82 13)"/>
</clipPath>
</defs>
</svg>
