<svg width="40" height="40" viewBox="0 0 40 40" fill="none" xmlns="http://www.w3.org/2000/svg">
<g clip-path="url(#clip0_4914_81136)">
<path d="M27.683 21.6316V10.062C27.683 8.92606 26.7407 8 25.5848 8H13.2844C12.1033 8 11.1485 8.93841 11.1485 10.0991V22.1749L9.55279 23.743C8.8115 24.4715 8.8115 25.6446 9.55279 26.3607L15.6213 32.3245C16.3626 33.0531 17.5562 33.0531 18.2849 32.3245L19.868 30.7688L21.9035 32.7691C22.6447 33.4976 23.8383 33.4976 24.5671 32.7691L30.4471 26.9904C31.1884 26.2619 31.1884 25.0889 30.4471 24.3604L27.683 21.644V21.6316ZM25.6727 10.7041V19.656L21.1119 15.1739L25.6727 10.6918V10.7041ZM23.5619 9.9756L19.6921 13.7786L15.8224 9.9756H23.5745H23.5619ZM13.1587 10.1608L18.2724 15.1862L13.1587 20.2117V10.1608ZM16.9531 30.8429L11.0605 25.0519L12.5556 23.5825L18.4357 29.3612L16.9406 30.8305L16.9531 30.8429ZM21.2878 29.3735L19.868 27.9782L13.9754 22.1873L19.6796 16.5815L25.5722 22.3601L26.992 23.7554L28.9269 25.6569L23.2227 31.2627L21.2878 29.3612V29.3735Z" fill="#76777D"/>
</g>
<defs>
<clipPath id="clip0_4914_81136">
<rect width="22" height="25.3" fill="white" transform="translate(9 8)"/>
</clipPath>
</defs>
</svg>
