<svg width="40" height="40" viewBox="0 0 40 40" fill="none" xmlns="http://www.w3.org/2000/svg">
<path d="M12.2501 13.6511L12.2496 13.6517C11.4434 14.5357 11 15.7902 11 17.2672C11 19.8025 12.2837 21.875 14.0518 23.5691L12.2501 13.6511ZM12.2501 13.6511C13.056 12.7658 14.2254 12.2499 15.68 12.2499C16.8387 12.2499 17.7516 12.6658 18.4585 13.4498C18.7147 13.7386 18.9365 14.0562 19.1196 14.3961C19.294 14.7199 19.6322 14.9219 20 14.9219M12.2501 13.6511L20 14.9219M20.0004 27.5831L20.0006 27.583C21.9264 26.5865 24.1764 25.2648 25.9439 23.564L25.9444 23.5635C27.7145 21.8625 29 19.7817 29 17.2672C29 15.7847 28.5546 14.5316 27.7471 13.6471L20.0004 27.5831ZM20.0004 27.5831L19.9996 27.5825C18.0685 26.572 15.8178 25.2609 14.0518 23.5692L20.0004 27.5831ZM20 14.9219C20.3678 14.9219 20.706 14.7199 20.8804 14.3961M20 14.9219L20.8804 14.3961M20.8804 14.3961C21.0635 14.0562 21.2853 13.7386 21.5415 13.4498C22.2489 12.6653 23.162 12.2485 24.32 12.2485C25.7692 12.2485 26.9393 12.7632 27.7468 13.6468L20.8804 14.3961Z" stroke="#76777D" stroke-width="2" stroke-linejoin="round"/>
</svg>
