<svg width="22" height="22" viewBox="0 0 22 22" fill="none" xmlns="http://www.w3.org/2000/svg">
<path fill-rule="evenodd" clip-rule="evenodd" d="M11 22C17.0751 22 22 17.0751 22 11C22 4.92487 17.0751 0 11 0C4.92487 0 0 4.92487 0 11C0 17.0751 4.92487 22 11 22ZM7.33405 10.2666C6.32153 10.2666 5.50072 9.44576 5.50072 8.43324C5.50072 7.42071 6.32153 6.5999 7.33405 6.5999C8.34657 6.5999 9.16738 7.42071 9.16738 8.43324C9.16738 9.44576 8.34657 10.2666 7.33405 10.2666ZM12.8333 8.43324C12.8333 9.44576 13.6541 10.2666 14.6667 10.2666C15.6792 10.2666 16.5 9.44576 16.5 8.43324C16.5 7.42071 15.6792 6.5999 14.6667 6.5999C13.6541 6.5999 12.8333 7.42071 12.8333 8.43324ZM16.246 13.9754C16.3907 13.5081 16.1293 13.012 15.662 12.8673C15.1948 12.7226 14.6987 12.9841 14.554 13.4514C14.4441 13.8063 13.6383 15.1009 11.176 15.1009C8.69971 15.1009 7.60796 13.7809 7.40324 13.3402C7.19716 12.8966 6.67048 12.7041 6.22687 12.9101C5.78325 13.1162 5.59068 13.6429 5.79676 14.0865C6.29604 15.1613 8.02029 16.8723 11.176 16.8723C14.3457 16.8723 15.8866 15.136 16.246 13.9754Z" fill="#F7F7F8"/>
</svg>
