<svg width="21" height="22" viewBox="0 0 21 22" fill="none" xmlns="http://www.w3.org/2000/svg">
<path fill-rule="evenodd" clip-rule="evenodd" d="M8.20769 6.54954C9.18363 6.47856 9.6272 5.78063 9.72699 5.44053C10.007 4.63071 9.72699 4.07797 9.50677 3.78489C8.20769 2.05601 9.36801 0.932846 10.1696 0.762938C11.847 0.407398 13.5021 0.940981 14.7921 1.56988C16.3419 2.32537 20.0895 4.50801 20.8533 8.79203C21.5314 12.5952 19.8674 17.9554 15.668 20.1786C11.4687 22.4018 4.81925 21.4815 2.06753 17.2288C-0.684193 12.9762 0.691669 9.07374 2.70543 7.58531C4.26327 6.43386 5.97361 6.49716 7.23299 6.54377C7.60156 6.55741 7.9315 6.56962 8.20769 6.54954ZM15.1425 12.7939C15.1425 11.8028 15.9459 10.9993 16.9371 10.9993C17.9282 10.9993 18.7317 11.8028 18.7317 12.7939C18.7317 13.785 17.9282 14.5885 16.9371 14.5885C15.9459 14.5885 15.1425 13.785 15.1425 12.7939ZM13.6031 15.5558C12.612 15.5558 11.8085 16.3593 11.8085 17.3504C11.8085 18.3416 12.612 19.1451 13.6031 19.1451C14.5943 19.1451 15.3977 18.3416 15.3977 17.3504C15.3977 16.3593 14.5943 15.5558 13.6031 15.5558ZM5.94636 17.3504C5.94636 16.3593 6.74983 15.5558 7.74096 15.5558C8.7321 15.5558 9.53557 16.3593 9.53557 17.3504C9.53557 18.3416 8.7321 19.1451 7.74096 19.1451C6.74983 19.1451 5.94636 18.3416 5.94636 17.3504ZM4.37932 10.9993C3.38819 10.9993 2.58472 11.8028 2.58472 12.7939C2.58472 13.785 3.38819 14.5885 4.37932 14.5885C5.37046 14.5885 6.17393 13.785 6.17393 12.7939C6.17393 11.8028 5.37046 10.9993 4.37932 10.9993Z" fill="#F7F7F8"/>
</svg>
