<svg width="93" height="35" viewBox="0 0 93 35" fill="none" xmlns="http://www.w3.org/2000/svg">
<path d="M47.3809 28.4241L48.5134 28.0266V16.0622L47.3809 15.7641V15.6648L51.7322 14.1543H51.7521V16.4399C52.4012 15.7376 53.0171 15.1811 53.5999 14.7704C54.196 14.3597 54.8318 14.1543 55.5074 14.1543C56.13 14.1543 56.7128 14.3398 57.2559 14.7108C57.799 15.0685 58.2361 15.6118 58.5673 16.3405C58.9116 17.056 59.0839 17.9304 59.0839 18.9639C59.0839 20.1829 58.8454 21.2362 58.3686 22.1239C57.9049 23.0116 57.2691 23.6874 56.4611 24.1511C55.6663 24.6148 54.7722 24.8467 53.7788 24.8467C53.4079 24.8467 53.0701 24.8136 52.7654 24.7473C52.4608 24.6943 52.123 24.6148 51.7521 24.5089V28.0266L53.2622 28.4241V28.5235H47.3809V28.4241ZM51.7521 23.4356C52.0303 23.7934 52.3217 24.0849 52.6264 24.3101C52.931 24.5221 53.2754 24.6281 53.6596 24.6281C54.0305 24.6281 54.3815 24.4824 54.7126 24.1909C55.0438 23.8861 55.3087 23.4224 55.5074 22.7997C55.7061 22.1637 55.8054 21.3819 55.8054 20.4545C55.8054 19.4608 55.6796 18.6393 55.4279 17.9901C55.1895 17.3408 54.8716 16.8638 54.4742 16.5591C54.0768 16.2544 53.6529 16.102 53.2026 16.102C52.686 16.102 52.2025 16.3007 51.7521 16.6982V23.4356Z" fill="white"/>
<path d="M40.8748 24.8455C40.3052 24.8455 39.7687 24.7992 39.2654 24.7064C38.7752 24.6269 38.3779 24.5408 38.0732 24.448L37.2586 19.5589H37.3778C37.6162 20.4599 38.0004 21.2549 38.5302 21.9439C39.06 22.6329 39.6892 23.1695 40.4178 23.5537C41.1463 23.9247 41.9146 24.1102 42.7226 24.1102C43.4379 24.1102 43.9744 23.9711 44.332 23.6928C44.7029 23.4013 44.8883 23.0105 44.8883 22.5202C44.8883 21.977 44.6168 21.4603 44.0737 20.97C43.5439 20.4798 42.5504 19.9034 41.0933 19.241C39.9277 18.711 39.0137 18.2075 38.3514 17.7305C37.6891 17.2403 37.2188 16.7567 36.9407 16.2797C36.6625 15.7894 36.5234 15.2528 36.5234 14.6698C36.5234 13.8484 36.7751 13.0931 37.2784 12.4042C37.795 11.7019 38.5103 11.1455 39.4243 10.7347C40.3383 10.3107 41.3781 10.0987 42.5438 10.0987C43.4975 10.0987 44.491 10.2379 45.5242 10.5161L45.9613 9.24414H46.0606V14.2525H45.9613C45.7228 13.113 45.2261 12.1855 44.4711 11.4701C43.7293 10.7546 42.8352 10.3969 41.7887 10.3969C41.0205 10.3969 40.3979 10.5757 39.921 10.9335C39.4574 11.2912 39.2256 11.7748 39.2256 12.3843C39.2256 13.007 39.4905 13.5834 40.0204 14.1134C40.5502 14.6301 41.4443 15.1667 42.7027 15.7232C44.1466 16.3592 45.1731 17.015 45.7825 17.6908C46.3918 18.3532 46.6964 19.1615 46.6964 20.1154C46.6964 20.9899 46.4646 21.7849 46.001 22.5004C45.5374 23.2158 44.8618 23.7856 43.9744 24.2096C43.1001 24.6335 42.0669 24.8455 40.8748 24.8455Z" fill="white"/>
<path d="M30.9329 24.8467C29.9527 24.8467 29.0719 24.6347 28.2903 24.2107C27.5221 23.7868 26.9194 23.1905 26.4822 22.422C26.0584 21.6536 25.8464 20.7658 25.8464 19.7589C25.8464 18.6459 26.0915 17.6654 26.5816 16.8175C27.0717 15.9695 27.734 15.3136 28.5685 14.8499C29.403 14.3862 30.317 14.1543 31.3105 14.1543C32.5159 14.1543 33.4762 14.4259 34.1915 14.9691C34.92 15.4991 35.324 16.1616 35.4035 16.9566H29.1447C29.1182 17.2746 29.105 17.5263 29.105 17.7118C29.105 19.368 29.4427 20.6068 30.1183 21.4283C30.7939 22.2498 31.7476 22.6605 32.9795 22.6605C33.7742 22.6605 34.3769 22.4949 34.7876 22.1637C35.1982 21.8192 35.5227 21.2958 35.7612 20.5936L35.8804 20.6333C35.0724 23.4423 33.4232 24.8467 30.9329 24.8467ZM32.284 16.6386C32.2178 15.9894 32.0456 15.4528 31.7674 15.0288C31.4893 14.6048 31.1515 14.3928 30.7541 14.3928C30.3302 14.3928 29.9792 14.5982 29.701 15.0089C29.4229 15.4196 29.2374 16.0092 29.1447 16.7777L32.284 16.6386Z" fill="white"/>
<path d="M7.0332 10.8938L6 10.4963V10.3969H12.3383V10.4963L10.6891 10.8938L14.2258 20.4335L17.544 9.91992H17.6036L22.7696 20.5726L23.6637 18.0684C24.1406 16.7832 24.4916 15.7232 24.7168 14.8885C24.942 14.0405 25.0546 13.3449 25.0546 12.8017C25.0546 12.0995 24.8757 11.596 24.5181 11.2913C24.1605 10.9733 23.6041 10.7414 22.8491 10.5957L22.3921 10.4963V10.3969H27.7568V10.4963L26.7434 10.8938L21.2794 25.0245H21.2198L16.5505 15.3258L12.5171 25.0245H12.4575L7.0332 10.8938Z" fill="white"/>
<path d="M82.3441 24.8482C81.5758 24.8482 80.9665 24.6296 80.5161 24.1924C80.0658 23.7419 79.8406 23.1258 79.8406 22.3441V15.6663H78.7676V15.547C79.7214 15.2688 80.6022 14.7521 81.4102 13.9968C82.2183 13.2416 82.7349 12.4731 82.96 11.6914H83.0793V14.4539H85.6424V15.6663H83.0793V22.1453C83.0793 22.5296 83.1985 22.8277 83.4369 23.0397C83.6753 23.2384 84.0131 23.3378 84.4502 23.3378C84.7152 23.3378 84.9602 23.298 85.1854 23.2185C85.4106 23.1391 85.6556 23.0066 85.9206 22.8211L86 22.9204C85.0198 23.6889 84.2913 24.2056 83.8144 24.4706C83.3508 24.7224 82.8607 24.8482 82.3441 24.8482Z" fill="white"/>
<path d="M59.9251 23.8317L65.9266 20.0777L60.5568 16.0108L67.1901 18.2007L65.6107 12.5696L69.4012 17.2622L77.6138 6L72.8757 17.575L77.6138 17.8878L72.244 19.7649L80.4566 26.3344L71.2964 22.8932L71.6122 26.6473L69.4012 23.2061L65.6107 28.5243L66.2425 22.5804L59.9251 23.8317Z" fill="white"/>
</svg>
