<svg width="40" height="40" viewBox="0 0 40 40" fill="none" xmlns="http://www.w3.org/2000/svg">
<g clip-path="url(#clip0_1551_29011)">
<path d="M32.0512 20.0475L8.83418 8.04308C8.73918 7.99387 8.63146 7.97473 8.52532 7.9882C8.41919 8.00168 8.31966 8.04713 8.23997 8.11851C8.16029 8.1899 8.10421 8.28385 8.07919 8.38787C8.05417 8.49189 8.06139 8.60107 8.0999 8.70088L11.6558 17.9548C11.6743 18.0034 11.7051 18.0464 11.7451 18.0797C11.7852 18.1129 11.8331 18.1351 11.8843 18.1443L22.6886 20.0947C23.0221 20.1567 23.0156 20.638 22.6804 20.691L11.8271 22.3463C11.776 22.3544 11.7279 22.3755 11.6874 22.4076C11.6468 22.4397 11.6152 22.4817 11.5956 22.5295L7.78789 31.6821C7.74655 31.7807 7.7362 31.8896 7.75822 31.9943C7.78024 32.099 7.83359 32.1945 7.91118 32.2682C7.98877 32.3418 8.08693 32.3901 8.19262 32.4066C8.29831 32.4231 8.40653 32.4071 8.5029 32.3607L32.0394 20.9921C32.1277 20.9496 32.2024 20.8833 32.2551 20.8007C32.3079 20.718 32.3365 20.6223 32.3378 20.5243C32.3392 20.4263 32.3131 20.3299 32.2627 20.2459C32.2123 20.1618 32.1383 20.0924 32.0512 20.0475Z" fill="#F7F7F8"/>
</g>
<defs>
<clipPath id="clip0_1551_29011">
<rect width="40" height="40" fill="white"/>
</clipPath>
</defs>
</svg>
