<svg width="40" height="40" viewBox="0 0 40 40" fill="none" xmlns="http://www.w3.org/2000/svg">
<path d="M18.7088 14.2353L12.7914 8.20117C12.4966 8.40194 12.3 8.7254 12.3 9.10463V20.7157L12.3328 20.7491L18.7088 14.2353Z" fill="#F7F7F8"/>
<path d="M27.4284 20.291V9.11495C27.4284 8.85841 27.3301 8.62418 27.1773 8.43457L21.5 14.2345L27.4284 20.291Z" fill="#F7F7F8"/>
<path d="M25.1931 7.40039H15.0177L20.1054 12.598L25.1931 7.40039Z" fill="#F7F7F8"/>
<path d="M11.0976 26.3114L16.2071 31.5313C16.6329 31.9663 17.3207 31.9663 17.7465 31.5313L18.8027 30.4454L12.2193 23.7197L11.0866 24.8837C10.7045 25.2741 10.7045 25.921 11.0866 26.3114H11.0976Z" fill="#F7F7F8"/>
<path d="M13.7295 22.1837L23.1273 31.7757C23.5313 31.9765 24.0335 31.9207 24.372 31.575L29.3396 26.5C29.7217 26.1096 29.7217 25.485 29.3396 25.0946L20.1055 15.6699L13.7295 22.1837Z" fill="#F7F7F8"/>
<path d="M12.7138 20.7479L12.6814 20.7148V20.781L12.7138 20.7479Z" fill="#F7F7F8"/>
</svg>
