<svg width="56" height="56" viewBox="0 0 56 56" fill="none" xmlns="http://www.w3.org/2000/svg">
<g clip-path="url(#clip0_3131_22184)">
<rect y="-0.00195312" width="56" height="56" rx="28" fill="#2E2F33"/>
<path fill-rule="evenodd" clip-rule="evenodd" d="M34.4993 20.4967C34.4994 21.3502 34.3314 22.1954 34.0049 22.984C33.6783 23.7725 33.1997 24.4891 32.5962 25.0926C31.9927 25.6962 31.2763 26.175 30.4878 26.5017C29.6993 26.8284 28.8542 26.9966 28.0007 26.9967C26.2769 26.9969 24.6237 26.3123 23.4047 25.0936C22.1858 23.8748 21.5008 22.2218 21.5007 20.498C21.5006 19.6445 21.6686 18.7994 21.9951 18.0108C22.3217 17.2222 22.8003 16.5057 23.4038 15.9021C24.6225 14.6831 26.2756 13.9982 27.9993 13.998C29.7231 13.9979 31.3763 14.6825 32.5953 15.9012C33.8142 17.1199 34.4992 18.773 34.4993 20.4967ZM28 28.985C18.6407 28.985 15 34.9413 15 37.7123C15 40.482 22.7501 41.2202 28 41.2202C33.2499 41.2202 41 40.482 41 37.7123C41 34.9413 37.3593 28.985 28 28.985Z" fill="#5A5C63"/>
</g>
<defs>
<clipPath id="clip0_3131_22184">
<rect y="-0.00195312" width="56" height="56" rx="28" fill="white"/>
</clipPath>
</defs>
</svg>
