<svg width="33" height="28" viewBox="0 0 33 28" fill="none" xmlns="http://www.w3.org/2000/svg">
<path d="M3.08532 23.7515L0.34082 8.03113C0.200048 7.2248 1.03474 6.6001 1.76867 6.9625L8.63537 10.3532L15.5078 1.12285C15.9175 0.572507 16.7471 0.588864 17.1349 1.15493L23.4355 10.3532L31.0235 6.85613C31.7417 6.52511 32.5418 7.1194 32.4324 7.90264L30.2189 23.7515H16.3438H3.08532Z" fill="#71787E"/>
<path d="M3.08423 27.406V23.752H30.2178V27.406H3.08423Z" fill="#474D56"/>
<path d="M12.3103 21.334L12.2937 19.5244L16.6101 15.5566C17.7307 14.4858 18.3367 13.8218 18.3367 12.8672C18.3367 11.7964 17.5315 11.1323 16.4275 11.1406C15.2986 11.1323 14.5598 11.8462 14.5681 13H12.1941C12.1858 10.6509 13.929 9.14844 16.4607 9.14844C19.0339 9.14844 20.7439 10.6177 20.7439 12.7012C20.7439 14.0708 20.0798 15.1914 17.6062 17.4326L15.78 19.209V19.2754H20.9099V21.334H12.3103Z" fill="#F7F7F8"/>
</svg>
