<svg width="40" height="40" viewBox="0 0 40 40" fill="none" xmlns="http://www.w3.org/2000/svg">
<g clip-path="url(#clip0_1551_28999)">
<rect x="4" y="9" width="32" height="21.3333" rx="2.13333" fill="#E1E2E4"/>
<path d="M33.8667 9.00024H6.13333C4.95513 9.00024 4 9.95537 4 11.1336V14.3336L20 23.4002L36 14.3336V11.1336C36 9.95537 35.0449 9.00024 33.8667 9.00024Z" fill="#F7F7F8"/>
<path fill-rule="evenodd" clip-rule="evenodd" d="M17.2352 15.4012C16.1446 15.4012 15.217 15.7778 14.5668 16.4645C13.9225 17.1439 13.6 18.0743 13.6 19.1039C13.6 20.8925 14.5472 22.3177 15.7504 23.4261C16.9485 24.5296 18.4554 25.369 19.703 25.9966C19.7942 26.0426 19.8955 26.0668 19.9985 26.0671C20.1014 26.0673 20.2029 26.0437 20.2944 25.9983C21.5428 25.3772 23.0489 24.5313 24.2479 23.422C25.4511 22.3103 26.4 20.8802 26.4 19.1039C26.4 18.0702 26.0757 17.1406 25.4306 16.4612C24.7795 15.7762 23.8519 15.4004 22.7648 15.4004C21.8466 15.4004 21.0871 15.7278 20.5094 16.3447C20.312 16.5585 20.141 16.7937 20 17.0454C19.859 16.7937 19.688 16.5585 19.4905 16.3447C18.9128 15.7278 18.1534 15.4012 17.2352 15.4012Z" fill="#F85B69"/>
</g>
<defs>
<clipPath id="clip0_1551_28999">
<rect x="4" y="9" width="32" height="21.3333" rx="2.13333" fill="white"/>
</clipPath>
</defs>
</svg>
