<svg width="26" height="28" viewBox="0 0 26 28" fill="none" xmlns="http://www.w3.org/2000/svg">
<path fill-rule="evenodd" clip-rule="evenodd" d="M19.4993 6.49867C19.4994 7.35218 19.3314 8.19734 19.0049 8.98591C18.6783 9.77448 18.1997 10.491 17.5962 11.0946C16.9927 11.6982 16.2763 12.177 15.4878 12.5037C14.6993 12.8304 13.8542 12.9986 13.0007 12.9987C11.2769 12.9988 9.62373 12.3143 8.40474 11.0955C7.18576 9.87679 6.50084 8.22373 6.50066 6.5C6.50058 5.6465 6.6686 4.80133 6.99514 4.01276C7.32168 3.22419 7.80035 2.50766 8.4038 1.90408C9.62254 0.685094 11.2756 0.000176105 12.9993 3.39549e-08C14.7231 -0.000176037 16.3763 0.684404 17.5953 1.90314C18.8142 3.12188 19.4992 4.77494 19.4993 6.49867ZM13 14.987C3.64069 14.987 0 20.9433 0 23.7143C0 26.484 7.75008 27.2222 13 27.2222C18.2499 27.2222 26 26.484 26 23.7143C26 20.9433 22.3593 14.987 13 14.987Z" fill="#5A5C63"/>
</svg>
