<svg width="20" height="20" viewBox="0 0 20 20" fill="none" xmlns="http://www.w3.org/2000/svg">
<path fill-rule="evenodd" clip-rule="evenodd" d="M10 20C15.5228 20 20 15.5228 20 10C20 4.47715 15.5228 0 10 0C4.47715 0 0 4.47715 0 10C0 15.5228 4.47715 20 10 20ZM14.7399 7.67267C15.1114 7.26402 15.0813 6.63157 14.6727 6.26006C14.264 5.88855 13.6316 5.91867 13.2601 6.32733L8.96553 11.0513L6.70711 8.79289C6.31658 8.40237 5.68342 8.40237 5.29289 8.79289C4.90237 9.18342 4.90237 9.81658 5.29289 10.2071L8.29289 13.2071C8.48627 13.4005 8.7504 13.5062 9.02379 13.4997C9.29718 13.4932 9.55598 13.375 9.73994 13.1727L14.7399 7.67267Z" fill="#F6FE8B"/>
</svg>
