<svg width="140" height="120" viewBox="0 0 140 120" fill="none" xmlns="http://www.w3.org/2000/svg">
<path d="M30.0469 28.8423C23.8397 40.9344 24.8311 56.9527 26.5169 64.2481L112.049 64.6715C115.637 48.1141 113.176 36.11 111.497 32.1777C101.261 8.19846 77.2046 13.5506 72.9962 14.6544C69.6296 15.5375 67.3128 15.3908 66.5752 15.2071C51.058 9.1516 36.555 16.1638 30.0469 28.8423Z" fill="#D34F4B"/>
<path d="M38.438 84.8976C44.8887 98.1136 19.7282 117.23 12.0657 100.036C6.24474 86.9752 25.7615 80.841 34.5292 80.5062L38.438 84.8976Z" fill="#D34F4B"/>
<path d="M100.699 84.8976C94.248 98.1136 119.409 117.23 127.071 100.036C132.892 86.9752 113.375 80.841 104.608 80.5062L100.699 84.8976Z" fill="#D34F4B"/>
<path d="M54.0575 96.7333C30.1678 93.6986 30.3577 72.5207 30.3575 55.8312C30.3575 36.9702 43.6344 18.4458 71.2592 19.2613C98.8841 20.0768 107.489 43.981 108.339 55.8312C108.976 59.8661 109.409 70.7394 106.045 81.9524C102.299 94.4393 84.1289 100.553 54.0575 96.7333Z" fill="white"/>
<path d="M121.318 76.1875C119.355 83.0557 109.116 83.1373 104.241 82.9799L106.223 65.7153C116.695 57.8849 123.771 67.6021 121.318 76.1875Z" fill="white"/>
<path d="M17.8161 76.1875C19.7786 83.0557 30.018 83.1373 34.8923 82.9799L32.9109 65.7153C22.4389 57.8849 15.3629 67.6021 17.8161 76.1875Z" fill="white"/>
<path d="M76.3989 79.876H62.3627C61.9232 79.876 61.5634 80.2322 61.605 80.6697C61.8441 83.1812 63.3256 86.9688 69.2872 86.9688C75.2713 86.9688 76.8938 83.2499 77.1543 80.67C77.1984 80.2327 76.8384 79.876 76.3989 79.876Z" fill="#222222"/>
<circle cx="69.2378" cy="70.8877" r="2.0391" fill="#F594BA"/>
<path d="M49.3988 54.8058C46.1693 66.616 30.9615 62.4555 29.9189 62.9967C25.6489 62.9967 25.8464 46.2814 29.3911 35.2275C36.8467 11.9783 61.5335 14.9402 71.1997 18.6469C109.628 11.0393 114.412 44.6828 112.001 62.4555L109.061 63.0795C85.2953 62.4555 89.1076 47.6763 82.768 41.9869C77.6962 37.4354 71.0093 39.7437 68.7064 41.6401C57.8821 35.702 52.5678 43.2164 49.3988 54.8058Z" fill="#D34F4B"/>
<g filter="url(#filter0_f_3042_1501)">
<circle cx="45.957" cy="79.7959" r="7.4121" fill="#FFBBBB" fill-opacity="0.5"/>
</g>
<g filter="url(#filter1_f_3042_1501)">
<circle cx="92.5171" cy="79.7959" r="7.4121" fill="#FFBBBB" fill-opacity="0.5"/>
</g>
<ellipse cx="52.4718" cy="66.8829" rx="5.38876" ry="5.38876" fill="#222222"/>
<ellipse cx="86.2904" cy="66.8829" rx="5.38876" ry="5.38876" fill="#222222"/>
<defs>
<filter id="filter0_f_3042_1501" x="32.1782" y="66.017" width="27.5577" height="27.5577" filterUnits="userSpaceOnUse" color-interpolation-filters="sRGB">
<feFlood flood-opacity="0" result="BackgroundImageFix"/>
<feBlend mode="normal" in="SourceGraphic" in2="BackgroundImageFix" result="shape"/>
<feGaussianBlur stdDeviation="3.18338" result="effect1_foregroundBlur_3042_1501"/>
</filter>
<filter id="filter1_f_3042_1501" x="78.7382" y="66.017" width="27.5577" height="27.5577" filterUnits="userSpaceOnUse" color-interpolation-filters="sRGB">
<feFlood flood-opacity="0" result="BackgroundImageFix"/>
<feBlend mode="normal" in="SourceGraphic" in2="BackgroundImageFix" result="shape"/>
<feGaussianBlur stdDeviation="3.18338" result="effect1_foregroundBlur_3042_1501"/>
</filter>
</defs>
</svg>
