<svg width="120" height="120" viewBox="0 0 120 120" fill="none" xmlns="http://www.w3.org/2000/svg">
<path d="M22.8864 31.4757C17.0574 42.8021 17.9884 57.806 19.5716 64.6394L99.8928 65.036C103.262 49.5271 100.951 38.2832 99.3746 34.5999C89.7615 12.1393 67.171 17.1525 63.2191 18.1864C60.0575 19.0135 57.8818 18.8761 57.1892 18.704C42.6174 13.032 28.9981 19.6002 22.8864 31.4757Z" fill="#D34F4B"/>
<path d="M30.7663 83.9809C36.824 96.36 13.1964 114.266 6.00081 98.1611C0.534458 85.9269 18.8622 80.1812 27.0957 79.8676L30.7663 83.9809Z" fill="#D34F4B"/>
<path d="M89.2337 83.9809C83.176 96.36 106.804 114.266 113.999 98.1611C119.466 85.9269 101.138 80.1812 92.9043 79.8676L89.2337 83.9809Z" fill="#D34F4B"/>
<path d="M45.4344 95.0677C23.0001 92.2252 23.1785 72.3884 23.1783 56.7558C23.1783 39.0893 35.6462 21.738 61.588 22.5019C87.5298 23.2657 95.6107 45.6561 96.4084 56.7558C97.0067 60.5353 97.4135 70.7199 94.2545 81.2229C90.7367 92.919 73.6736 98.6458 45.4344 95.0677Z" fill="white"/>
<path d="M108.596 75.8235C106.753 82.2568 97.1379 82.3332 92.5605 82.1858L94.4212 66.0145C104.255 58.6801 110.9 67.7818 108.596 75.8235Z" fill="white"/>
<path d="M11.4006 75.8235C13.2436 82.2568 22.8592 82.3332 27.4365 82.1858L25.5758 66.0145C15.7418 58.6801 9.09696 67.7818 11.4006 75.8235Z" fill="white"/>
<path d="M66.3657 79.2773H53.2817C52.8422 79.2773 52.4821 79.6334 52.5266 80.0707C52.7659 82.423 54.1768 85.921 59.7358 85.921C65.3169 85.921 66.8579 82.485 67.1183 80.0707C67.1655 79.6337 66.8052 79.2773 66.3657 79.2773Z" fill="#222222"/>
<ellipse cx="59.6898" cy="70.8592" rx="1.91487" ry="1.90997" fill="#F594BA"/>
<path d="M41.0592 55.7944C38.0265 66.8567 23.7452 62.9597 22.7661 63.4666C18.7563 63.4666 18.9418 47.8098 22.2706 37.4559C29.2719 15.6791 52.4546 18.4534 61.5319 21.9253C97.6187 14.7995 102.112 46.3125 99.8474 62.9597L97.0868 63.5442C74.7687 62.9597 78.3488 49.1164 72.3954 43.7873C67.6326 39.524 61.3531 41.6861 59.1905 43.4625C49.0257 37.9004 44.0352 44.939 41.0592 55.7944Z" fill="#D34F4B"/>
<g filter="url(#filter0_f_3250_11328)">
<ellipse cx="37.8272" cy="79.2025" rx="6.96051" ry="6.94271" fill="#FFBBBB" fill-opacity="0.5"/>
</g>
<g filter="url(#filter1_f_3250_11328)">
<ellipse cx="81.5504" cy="79.2025" rx="6.96051" ry="6.94271" fill="#FFBBBB" fill-opacity="0.5"/>
</g>
<ellipse cx="43.9452" cy="67.1071" rx="5.06044" ry="5.0475" fill="#222222"/>
<ellipse cx="75.7035" cy="67.1071" rx="5.06044" ry="5.0475" fill="#222222"/>
<defs>
<filter id="filter0_f_3250_11328" x="24.4999" y="65.893" width="26.6544" height="26.6193" filterUnits="userSpaceOnUse" color-interpolation-filters="sRGB">
<feFlood flood-opacity="0" result="BackgroundImageFix"/>
<feBlend mode="normal" in="SourceGraphic" in2="BackgroundImageFix" result="shape"/>
<feGaussianBlur stdDeviation="3.18338" result="effect1_foregroundBlur_3250_11328"/>
</filter>
<filter id="filter1_f_3250_11328" x="68.2231" y="65.893" width="26.6544" height="26.6193" filterUnits="userSpaceOnUse" color-interpolation-filters="sRGB">
<feFlood flood-opacity="0" result="BackgroundImageFix"/>
<feBlend mode="normal" in="SourceGraphic" in2="BackgroundImageFix" result="shape"/>
<feGaussianBlur stdDeviation="3.18338" result="effect1_foregroundBlur_3250_11328"/>
</filter>
</defs>
</svg>
