<svg width="33" height="28" viewBox="0 0 33 28" fill="none" xmlns="http://www.w3.org/2000/svg">
<path d="M3.08532 23.7515L0.34082 8.03113C0.200048 7.2248 1.03474 6.6001 1.76867 6.9625L8.63537 10.3532L15.5078 1.12285C15.9175 0.572507 16.7471 0.588864 17.1349 1.15493L23.4355 10.3532L31.0235 6.85613C31.7417 6.52511 32.5418 7.1194 32.4324 7.90264L30.2189 23.7515H16.3438H3.08532Z" fill="#A68364"/>
<path d="M3.08423 27.406V23.752H30.2178V27.406H3.08423Z" fill="#925E39"/>
<path d="M16.5188 21.5C13.8792 21.5 11.9866 20.0474 11.9368 17.9473H14.4602C14.5017 18.8438 15.3733 19.4331 16.5354 19.4414C17.7307 19.4331 18.5857 18.769 18.5774 17.7979C18.5857 16.8184 17.7141 16.1294 16.303 16.1211H15.1907V14.2783H16.303C17.49 14.2783 18.3201 13.6309 18.3118 12.6846C18.3201 11.7632 17.6145 11.1323 16.552 11.1406C15.4895 11.1323 14.6179 11.73 14.5764 12.6514H12.1858C12.2273 10.5845 14.0867 9.14844 16.552 9.14844C19.0588 9.14844 20.7273 10.6343 20.719 12.5352C20.7273 13.8799 19.7893 14.8345 18.4446 15.0752V15.1748C20.2126 15.3906 21.1838 16.4614 21.1672 17.9639C21.1838 20.0225 19.2332 21.5 16.5188 21.5Z" fill="#F7F7F8"/>
</svg>
