<svg width="40" height="40" viewBox="0 0 40 40" fill="none" xmlns="http://www.w3.org/2000/svg">
<g clip-path="url(#clip0_1294_48183)">
<path fill-rule="evenodd" clip-rule="evenodd" d="M17.3146 8.00955L14.2679 11.0886L19.7232 16.6134L22.7812 13.523L17.3146 8.00955ZM18.4944 6.50089C17.841 5.82198 16.7826 5.84593 16.1398 6.49556L12.7557 9.91556C12.1184 10.5597 12.0949 11.6117 12.7609 12.2666L18.5557 18.1348L18.5629 18.1418C19.2053 18.7639 20.2482 18.7842 20.8979 18.1276L24.2937 14.6957C24.9378 14.0447 24.918 13.0079 24.3078 12.3644L24.3005 12.3568L18.4944 6.50089Z" fill="#EAEBEC"/>
<g clip-path="url(#clip1_1294_48183)">
<path d="M25.8294 15.3813H25.6157L24.7132 16.3313L23.8107 17.2813L23.0388 18.1007C22.8963 18.2432 22.7419 18.362 22.5994 18.4807H22.9082C23.3713 18.4807 23.7632 18.8845 23.7632 19.3713C23.7632 19.8582 23.3832 20.262 22.9082 20.262H16.1157C15.6526 20.262 15.2607 19.8582 15.2607 19.3713C15.2607 18.8845 15.6407 18.4807 16.1157 18.4807H16.4244C16.2701 18.3501 16.1157 18.2432 15.9851 18.1007L15.2132 17.2813L14.3107 16.3313L13.4082 15.3813H13.1944C11.4488 15.3813 10.0238 16.8776 10.0238 18.7063V22.7201H29.0238V18.7063C29.0238 16.8776 27.5988 15.3813 25.8532 15.3813H25.8294Z" fill="#EAEBEC"/>
<path d="M27.1831 24.6201H10V29.4176C10 30.5932 10.9144 31.5551 12.0425 31.5551H26.9694C28.0975 31.5551 29.0119 30.5932 29.0119 29.4176V24.6201H27.195H27.1831Z" fill="#EAEBEC"/>
<path fill-rule="evenodd" clip-rule="evenodd" d="M18.4045 6.48889C17.7553 5.83964 16.7026 5.83964 16.0534 6.48889L12.6274 9.91482C11.9782 10.5641 11.9782 11.6167 12.6274 12.266L18.4885 18.127C19.1377 18.7762 20.1904 18.7762 20.8396 18.127L24.2655 14.7011C24.9148 14.0518 24.9148 12.9992 24.2655 12.3499L18.4045 6.48889Z" fill="#EAEBEC"/>
</g>
</g>
<defs>
<clipPath id="clip0_1294_48183">
<rect width="19" height="25.555" fill="white" transform="translate(10 6)"/>
</clipPath>
<clipPath id="clip1_1294_48183">
<rect width="19" height="25.555" fill="white" transform="translate(10 6)"/>
</clipPath>
</defs>
</svg>
