<svg width="10" height="12" viewBox="0 0 10 12" fill="none" xmlns="http://www.w3.org/2000/svg">
<path fill-rule="evenodd" clip-rule="evenodd" d="M1.0625 10.5249H8.9375C9.08668 10.5249 9.22976 10.5842 9.33525 10.6897C9.44074 10.7951 9.5 10.9382 9.5 11.0874C9.5 11.2366 9.44074 11.3797 9.33525 11.4852C9.22976 11.5906 9.08668 11.6499 8.9375 11.6499H1.0625C0.913316 11.6499 0.770242 11.5906 0.664753 11.4852C0.559263 11.3797 0.5 11.2366 0.5 11.0874C0.5 10.9382 0.559263 10.7951 0.664753 10.6897C0.770242 10.5842 0.913316 10.5249 1.0625 10.5249ZM0.5 7.7124L6.125 2.0874L7.8125 3.7749L2.1875 9.3999H0.5V7.7124ZM6.6875 1.5249L7.8125 0.399902L9.5 2.0874L8.37444 3.21296L6.6875 1.5249Z" fill="#F7F7F8"/>
</svg>
