<svg width="26" height="26" viewBox="0 0 26 26" fill="none" xmlns="http://www.w3.org/2000/svg">
<path d="M10.6977 18.0778H15.2995C15.1139 19.1688 14.1544 20 12.9986 20C11.8428 20 10.8833 19.1688 10.6977 18.0778ZM12.9986 5C16.2203 5 18.832 7.58329 18.832 10.7699V13.8461L19.9352 16.2772C19.9779 16.3714 20 16.4733 20 16.5765C20 16.9801 19.6692 17.3074 19.2611 17.3074H6.73909C6.63503 17.3074 6.53215 17.2856 6.43717 17.2436C6.06471 17.0786 5.89794 16.6463 6.06468 16.2779L7.16517 13.8464L7.16526 10.76L7.16869 10.5677C7.27686 7.4668 9.85312 5 12.9986 5Z" fill="#F6FE8B"/>
</svg>
