<svg width="198" height="56" viewBox="0 0 198 56" fill="none" xmlns="http://www.w3.org/2000/svg">
<path d="M102.418 55.4866L105.221 54.5031V24.8991L102.418 24.1615V23.9156L113.188 20.1782H113.237V25.8335C114.843 24.0959 116.368 22.719 117.81 21.7027C119.285 20.6864 120.859 20.1782 122.531 20.1782C124.072 20.1782 125.514 20.6372 126.858 21.5552C128.203 22.4403 129.285 23.7845 130.104 25.5876C130.956 27.3579 131.383 29.5217 131.383 32.0788C131.383 35.095 130.793 37.7013 129.612 39.8978C128.465 42.0944 126.891 43.7664 124.891 44.9138C122.924 46.0612 120.711 46.635 118.253 46.635C117.335 46.635 116.499 46.553 115.745 46.3891C114.991 46.2579 114.155 46.0612 113.237 45.799V54.5031L116.974 55.4866V55.7325H102.418V55.4866ZM113.237 43.1435C113.925 44.0286 114.646 44.7499 115.4 45.3072C116.154 45.8317 117.007 46.094 117.958 46.094C118.876 46.094 119.744 45.7334 120.564 45.0121C121.384 44.2581 122.039 43.1107 122.531 41.5698C123.023 39.9962 123.269 38.0619 123.269 35.767C123.269 33.3082 122.957 31.2756 122.334 29.6692C121.744 28.0628 120.957 26.8826 119.974 26.1285C118.99 25.3745 117.941 24.9975 116.827 24.9975C115.548 24.9975 114.351 25.4892 113.237 26.4728V43.1435Z" fill="#F6FE8C"/>
<path d="M86.3145 46.635C84.9048 46.635 83.577 46.5202 82.3312 46.2907C81.1182 46.094 80.1347 45.8809 79.3807 45.6514L77.3644 33.5541H77.6595C78.2496 35.7834 79.2003 37.7505 80.5117 39.4553C81.8231 41.16 83.3803 42.4878 85.1834 43.4385C86.9866 44.3565 88.888 44.8155 90.8879 44.8155C92.6582 44.8155 93.986 44.4712 94.8711 43.7828C95.7891 43.0615 96.2481 42.0944 96.2481 40.8814C96.2481 39.5372 95.576 38.2586 94.2318 37.0456C92.9205 35.8326 90.4617 34.4065 86.8554 32.7673C83.9704 31.4559 81.7083 30.2102 80.0691 29.0299C78.4299 27.8169 77.2661 26.6203 76.5776 25.4401C75.8892 24.2271 75.5449 22.8993 75.5449 21.4568C75.5449 19.4242 76.1678 17.5555 77.4136 15.8507C78.6922 14.1132 80.4625 12.7363 82.7246 11.7199C84.9867 10.6709 87.5603 10.1463 90.4453 10.1463C92.8057 10.1463 95.2645 10.4905 97.8217 11.179L98.9036 8.03174H99.1494V20.4241H98.9036C98.3134 17.6047 97.084 15.3098 95.2154 13.5395C93.3794 11.7691 91.1665 10.884 88.5766 10.884C86.6751 10.884 85.1343 11.3265 83.954 12.2117C82.8066 13.0969 82.2329 14.2935 82.2329 15.8016C82.2329 17.3424 82.8885 18.7685 84.1999 20.0799C85.5113 21.3585 87.7242 22.6862 90.8387 24.0631C94.4122 25.6368 96.9529 27.2596 98.461 28.9316C99.969 30.5708 100.723 32.5706 100.723 34.9311C100.723 37.0948 100.149 39.0619 99.0019 40.8322C97.8545 42.6025 96.1825 44.0122 93.986 45.0613C91.8222 46.1104 89.265 46.635 86.3145 46.635Z" fill="#F6FE8C"/>
<path d="M61.7082 46.635C59.2822 46.635 57.1021 46.1104 55.1678 45.0613C53.2663 44.0122 51.7746 42.537 50.6928 40.6355C49.6437 38.734 49.1191 36.5375 49.1191 34.0459C49.1191 31.292 49.7256 28.866 50.9387 26.7678C52.1517 24.6696 53.7909 23.0468 55.8563 21.8994C57.9217 20.7519 60.1838 20.1782 62.6426 20.1782C65.6259 20.1782 68.0028 20.8503 69.7731 22.1944C71.5762 23.5058 72.5761 25.145 72.7728 27.1121H57.2824C57.2168 27.8989 57.184 28.5218 57.184 28.9807C57.184 33.0788 58.02 36.1441 59.692 38.1767C61.364 40.2093 63.7244 41.2256 66.7734 41.2256C68.7404 41.2256 70.2321 40.8158 71.2484 39.9962C72.2647 39.1438 73.0679 37.8488 73.658 36.1113L73.9531 36.2096C71.9532 43.1598 67.8716 46.635 61.7082 46.635ZM65.0522 26.3252C64.8883 24.7188 64.4621 23.3911 63.7736 22.342C63.0852 21.2929 62.2492 20.7683 61.2656 20.7683C60.2165 20.7683 59.3478 21.2765 58.6593 22.2928C57.9708 23.3091 57.5119 24.768 57.2824 26.6695L65.0522 26.3252Z" fill="#F6FE8C"/>
<path d="M2.55716 12.1137L0 11.1302V10.8843H15.6872V11.1302L11.6056 12.1137L20.3589 35.7183L28.5713 9.7041H28.7188L41.5046 36.0625L43.7175 29.8663C44.8978 26.6862 45.7665 24.0635 46.3239 21.9981C46.8812 19.8999 47.1599 18.1788 47.1599 16.8346C47.1599 15.0971 46.7173 13.8513 45.8321 13.0973C44.9469 12.3104 43.57 11.7367 41.7013 11.3761L40.5703 11.1302V10.8843H53.8478V11.1302L51.3398 12.1137L37.8164 47.0779H37.6689L26.1125 23.08L16.1298 47.0779H15.9822L2.55716 12.1137Z" fill="#F6FE8C"/>
<path d="M188.952 46.6351C187.05 46.6351 185.542 46.0942 184.428 45.0123C183.313 43.8977 182.756 42.3732 182.756 40.439V23.9158H180.1V23.6207C182.461 22.9323 184.641 21.6537 186.641 19.785C188.64 17.9163 189.919 16.0148 190.476 14.0806H190.771V20.916H197.115V23.9158H190.771V39.9472C190.771 40.8979 191.066 41.6356 191.656 42.1601C192.247 42.6519 193.083 42.8978 194.164 42.8978C194.82 42.8978 195.427 42.7994 195.984 42.6027C196.541 42.406 197.148 42.0782 197.803 41.6192L198 41.8651C195.574 43.7665 193.771 45.0451 192.591 45.7008C191.443 46.3237 190.23 46.6351 188.952 46.6351Z" fill="#F6FE8C"/>
<path d="M133.464 44.1219L148.318 34.8331L135.027 24.7702L151.445 30.1887L147.536 16.2554L156.917 27.8665L177.243 0L165.517 28.6405L177.243 29.4146L163.953 34.059L184.279 50.3144L161.608 41.7997L162.389 51.0885L156.917 42.5737L147.536 55.7329L149.099 41.0256L133.464 44.1219Z" fill="#F6FE8C"/>
</svg>
