<svg width="31" height="31" viewBox="0 0 31 31" fill="none" xmlns="http://www.w3.org/2000/svg">
<path d="M2 14C2 8.3435 2 5.5145 3.758 3.758C5.5145 2 8.3435 2 14 2H17C22.6565 2 25.4855 2 27.242 3.758C29 5.5145 29 8.3435 29 14V17C29 22.6565 29 25.4855 27.242 27.242C25.4855 29 22.6565 29 17 29H14C8.3435 29 5.5145 29 3.758 27.242C2 25.4855 2 22.6565 2 17V14Z" stroke="#EAEBEC" stroke-width="2.6"/>
<path d="M22.2499 11C23.4925 11 24.4999 9.99264 24.4999 8.75C24.4999 7.50736 23.4925 6.5 22.2499 6.5C21.0073 6.5 19.9999 7.50736 19.9999 8.75C19.9999 9.99264 21.0073 11 22.2499 11Z" fill="#EAEBEC"/>
<path d="M15.5001 20C17.9854 20 20.0001 17.9853 20.0001 15.5C20.0001 13.0147 17.9854 11 15.5001 11C13.0148 11 11.0001 13.0147 11.0001 15.5C11.0001 17.9853 13.0148 20 15.5001 20Z" stroke="#EAEBEC" stroke-width="2.6"/>
</svg>
