<svg width="40" height="40" viewBox="0 0 40 40" fill="none" xmlns="http://www.w3.org/2000/svg">
<g clip-path="url(#clip0_1294_48277)">
<path fill-rule="evenodd" clip-rule="evenodd" d="M13.4193 17.2813C12.5419 17.2813 11.89 17.963 11.89 18.7063V29.4176C11.89 29.5194 11.9775 29.6551 12.1738 29.6551H26.8262C27.0224 29.6551 27.11 29.5194 27.11 29.4176V18.7063C27.11 17.963 26.4581 17.2813 25.5807 17.2813H21.8268L20.9166 18.1553C20.2582 18.7674 19.2236 18.7674 18.5652 18.1552L18.5541 18.1448L17.6549 17.2813H13.4193ZM9.98999 18.7063C9.98999 16.8372 11.5706 15.3813 13.4193 15.3813H18.4193L19.7409 16.6502L21.0624 15.3813H25.5807C27.4293 15.3813 29.01 16.8372 29.01 18.7063V29.4176C29.01 30.6458 27.993 31.5551 26.8262 31.5551H12.1738C11.0069 31.5551 9.98999 30.6458 9.98999 29.4176V18.7063Z" fill="#76777D"/>
<path fill-rule="evenodd" clip-rule="evenodd" d="M15.1489 19.3711C15.1489 18.8792 15.5477 18.4805 16.0396 18.4805H23.0896C23.5815 18.4805 23.9803 18.8792 23.9803 19.3711C23.9803 19.863 23.5815 20.2617 23.0896 20.2617H16.0396C15.5477 20.2617 15.1489 19.863 15.1489 19.3711Z" fill="#76777D"/>
<path fill-rule="evenodd" clip-rule="evenodd" d="M27.5782 24.6202H11.1398V22.7202H27.5782V24.6202Z" fill="#76777D"/>
<path fill-rule="evenodd" clip-rule="evenodd" d="M17.3146 8.00955L14.2679 11.0886L19.7232 16.6134L22.7812 13.523L17.3146 8.00955ZM18.4944 6.50089C17.841 5.82198 16.7826 5.84593 16.1398 6.49556L12.7557 9.91556C12.1184 10.5597 12.0949 11.6117 12.7609 12.2666L18.5557 18.1348L18.5629 18.1418C19.2053 18.7639 20.2482 18.7842 20.8979 18.1276L24.2937 14.6957C24.9378 14.0447 24.918 13.0079 24.3078 12.3644L24.3005 12.3568L18.4944 6.50089Z" fill="#76777D"/>
</g>
<defs>
<clipPath id="clip0_1294_48277">
<rect width="19" height="25.555" fill="white" transform="translate(10 6)"/>
</clipPath>
</defs>
</svg>
